<svg width="170" height="169" viewBox="0 0 170 169" fill="none" xmlns="http://www.w3.org/2000/svg">
<path fill-rule="evenodd" clip-rule="evenodd" d="M78.0483 60.0874C79.7822 60.0874 81.5724 58.5838 81.5724 56.0653C81.5612 55.5316 81.4212 55.0085 81.1644 54.5405C80.9075 54.0725 80.5413 53.6736 80.097 53.3776C79.2751 52.7876 78.2895 52.469 77.2777 52.4661C75.3701 52.4661 73.9886 54.1905 73.9886 56.5634C73.9886 58.2972 75.4969 60.0874 78.0249 60.0874H78.0483ZM77.3012 54.5335C78.2974 54.5335 79.5049 55.2195 79.5049 56.0653C79.5049 57.005 78.9505 58.02 78.0483 58.02C77.1462 58.02 76.0796 57.4655 76.0796 56.5634C76.0843 55.7505 76.4085 54.5335 77.3059 54.5335H77.3012ZM89.4616 63.4611C88.6756 63.4624 87.9222 63.7751 87.3664 64.3309C86.8107 64.8866 86.4979 65.6401 86.4967 66.426C86.4967 66.7002 86.6056 66.9631 86.7995 67.157C86.9933 67.3508 87.2562 67.4597 87.5304 67.4597C87.8046 67.4597 88.0675 67.3508 88.2614 67.157C88.4552 66.9631 88.5641 66.7002 88.5641 66.426C88.5641 66.188 88.6587 65.9597 88.827 65.7914C88.9953 65.6231 89.2235 65.5285 89.4616 65.5285C89.7357 65.5285 89.9987 65.4196 90.1925 65.2258C90.3864 65.0319 90.4953 64.769 90.4953 64.4948C90.4953 64.2206 90.3864 63.9577 90.1925 63.7639C89.9987 63.57 89.7357 63.4611 89.4616 63.4611ZM67.0486 53.3212C67.1858 53.2988 67.317 53.249 67.4345 53.1747C67.552 53.1004 67.6533 53.0032 67.7324 52.8889C67.8114 52.7745 67.8666 52.6454 67.8946 52.5093C67.9226 52.3731 67.9228 52.2327 67.8953 52.0965C67.8678 51.9602 67.8131 51.8309 67.7345 51.7163C67.6559 51.6017 67.5549 51.5041 67.4377 51.4294C67.3205 51.3546 67.1895 51.3043 67.0524 51.2814C66.9153 51.2585 66.7749 51.2635 66.6398 51.2961C66.5241 51.3194 66.4049 51.3196 66.2892 51.2967C66.1734 51.2739 66.0632 51.2285 65.965 51.163C65.8668 51.0975 65.7825 51.0133 65.7169 50.9152C65.6512 50.8171 65.6056 50.707 65.5826 50.5913C65.5199 50.3312 65.3589 50.1056 65.1334 49.9618C64.9078 49.8181 64.6353 49.7673 64.3731 49.8202C64.1109 49.8732 63.8795 50.0256 63.7274 50.2457C63.5753 50.4657 63.5143 50.7361 63.5574 51.0001C63.7148 51.77 64.1714 52.446 64.8269 52.8795C65.4824 53.313 66.2832 53.4685 67.0533 53.3118L67.0486 53.3212ZM52.257 39.2532C52.3799 39.3173 52.5145 39.3559 52.6527 39.3669C52.7909 39.3779 52.9299 39.3609 53.0614 39.3171C53.1929 39.2732 53.3143 39.2034 53.4183 39.1117C53.5222 39.02 53.6067 38.9084 53.6666 38.7834C53.7752 38.5716 53.963 38.4113 54.1891 38.3374C54.4153 38.2635 54.6615 38.2819 54.8742 38.3887C54.9951 38.4504 55.127 38.4876 55.2624 38.4984C55.3977 38.5091 55.5339 38.4931 55.663 38.4512C55.7922 38.4093 55.9118 38.3424 56.0151 38.2542C56.1184 38.1661 56.2033 38.0585 56.265 37.9376C56.3267 37.8166 56.364 37.6847 56.3747 37.5494C56.3854 37.414 56.3694 37.2779 56.3275 37.1488C56.2856 37.0196 56.2187 36.9 56.1306 36.7967C56.0425 36.6934 55.9349 36.6085 55.8139 36.5468C55.1129 36.1912 54.2994 36.1286 53.5522 36.3727C52.8051 36.6167 52.1854 37.1475 51.8294 37.8483C51.7654 37.9713 51.7267 38.1058 51.7158 38.244C51.7048 38.3822 51.7217 38.5212 51.7656 38.6527C51.8094 38.7842 51.8792 38.9056 51.9709 39.0095C52.0626 39.1135 52.1743 39.198 52.2993 39.2579L52.257 39.2532ZM65.3618 29.0382C66.8701 29.0382 67.9226 27.591 67.9226 25.5141C67.9226 23.4373 66.3532 21.4168 64.8167 21.4168C63.4071 21.4168 62.4251 23.1413 62.4251 25.5141C62.4251 27.248 63.5246 29.0382 65.3618 29.0382ZM64.8167 23.4843C65.5356 23.4843 66.419 24.6026 66.419 25.5141C66.419 26.4257 66.0572 26.9707 65.3618 26.9707C64.9829 26.9609 64.6229 26.8028 64.3594 26.5304C64.0958 26.2581 63.9496 25.8932 63.9521 25.5141C63.9521 24.6872 64.173 23.4843 64.8261 23.4843H64.8167ZM60.2119 72.1162C61.9458 72.1162 63.736 70.6126 63.736 68.0941C63.7268 67.5599 63.5877 67.0361 63.3306 66.5678C63.0736 66.0995 62.7063 65.7009 62.2606 65.4064C61.439 64.8158 60.4532 64.4971 59.4414 64.4948C57.5384 64.4948 56.1523 66.2146 56.1523 68.5921C56.1523 70.3213 57.6652 72.1162 60.1932 72.1162H60.2119ZM59.4602 66.5623C60.461 66.5623 61.6686 67.2436 61.6686 68.0941C61.6686 69.0338 61.1141 70.0487 60.2119 70.0487C59.3098 70.0487 58.2385 69.4896 58.2385 68.5921C58.2479 67.7745 58.5768 66.5623 59.4696 66.5623H59.4602ZM55.3628 49.9335C57.0967 49.9335 58.8869 48.4299 58.8869 45.9113C58.8757 45.3776 58.7358 44.8545 58.4789 44.3865C58.222 43.9186 57.8558 43.5196 57.4115 43.2237C56.5889 42.6351 55.6038 42.3166 54.5923 42.3121C52.7128 42.3121 51.3032 44.0365 51.3032 46.4094C51.3032 48.1432 52.8161 49.9335 55.3441 49.9335H55.3628ZM54.6111 44.3795C55.6119 44.3795 56.8195 45.0609 56.8195 45.9113C56.8195 46.8511 56.265 47.866 55.3628 47.866C54.4607 47.866 53.3894 47.3116 53.3894 46.4094C53.3894 45.5918 53.7183 44.3795 54.6111 44.3795ZM87.9157 43.172C87.1289 43.172 86.3743 43.4842 85.8175 44.0401C85.2607 44.596 84.9473 45.3501 84.9461 46.1369C84.9461 46.411 85.055 46.674 85.2488 46.8678C85.4427 47.0617 85.7057 47.1706 85.9798 47.1706C86.254 47.1706 86.5169 47.0617 86.7108 46.8678C86.9046 46.674 87.0135 46.411 87.0135 46.1369C87.0148 45.8992 87.1097 45.6717 87.2778 45.5036C87.4458 45.3356 87.6733 45.2406 87.911 45.2394C88.1851 45.2394 88.4481 45.1305 88.642 44.9366C88.8358 44.7428 88.9447 44.4799 88.9447 44.2057C88.9447 43.9315 88.8358 43.6686 88.642 43.4747C88.4481 43.2809 88.1851 43.172 87.911 43.172H87.9157ZM75.356 74.4937C75.6252 74.4395 75.8618 74.2806 76.0138 74.0519C76.1658 73.8233 76.2207 73.5436 76.1665 73.2744C76.1123 73.0052 75.9534 72.7686 75.7247 72.6166C75.496 72.4646 75.2164 72.4097 74.9472 72.4639C74.8315 72.4872 74.7123 72.4874 74.5965 72.4645C74.4807 72.4417 74.3706 72.3962 74.2724 72.3308C74.1742 72.2653 74.0898 72.1811 74.0242 72.083C73.9586 71.9849 73.913 71.8748 73.89 71.7591C73.8273 71.499 73.6663 71.2734 73.4407 71.1297C73.2152 70.9859 72.9427 70.9351 72.6805 70.988C72.4183 71.0409 72.1868 71.1934 72.0347 71.4135C71.8826 71.6335 71.8217 71.9039 71.8648 72.1679C72.0213 72.9382 72.4763 73.6153 73.1305 74.0511C73.7847 74.4869 74.5848 74.6461 75.356 74.4937ZM45.5989 53.9039C45.722 53.9673 45.8565 54.0054 45.9945 54.016C46.1325 54.0266 46.2713 54.0096 46.4026 53.9658C46.534 53.922 46.6552 53.8524 46.7593 53.7611C46.8633 53.6698 46.9481 53.5586 47.0085 53.434C47.1171 53.2223 47.3049 53.062 47.531 52.9881C47.7572 52.9141 48.0034 52.9326 48.2161 53.0393C48.4603 53.1639 48.7441 53.1864 49.0049 53.1018C49.2658 53.0172 49.4823 52.8325 49.6069 52.5882C49.7315 52.344 49.754 52.0602 49.6694 51.7994C49.5848 51.5386 49.4001 51.322 49.1558 51.1974C48.8088 51.0207 48.4304 50.9142 48.0422 50.8841C47.654 50.8539 47.2636 50.9006 46.8935 51.0215C46.5234 51.1424 46.1807 51.3351 45.8852 51.5886C45.5897 51.8422 45.3471 52.1515 45.1713 52.499C45.1079 52.622 45.0698 52.7566 45.0592 52.8946C45.0485 53.0326 45.0656 53.1714 45.1094 53.3027C45.1532 53.4341 45.2228 53.5553 45.3141 53.6594C45.4054 53.7634 45.5166 53.8481 45.6412 53.9086L45.5989 53.9039ZM90.4342 20.3549C92.5063 20.3549 93.9583 19.3024 93.9583 17.7894C93.9583 16.2764 91.7968 14.801 89.6824 14.801C87.7747 14.801 86.3933 16.0603 86.3933 17.7894C86.3933 19.0534 87.9016 20.3549 90.4342 20.3549ZM89.6824 16.3093C90.6692 16.3093 91.8861 17.1269 91.8861 17.7894C91.8861 18.4519 91.3833 18.8513 90.4342 18.8513C89.4851 18.8513 88.4607 18.4425 88.4607 17.7894C88.4607 17.1363 88.785 16.3234 89.6824 16.3234V16.3093ZM108.177 75.1328C108.21 73.6808 106.424 72.1397 103.384 72.0739C102.178 72.0223 100.999 72.44 100.095 73.2392C99.7561 73.5286 99.4793 73.8833 99.2807 74.2821C99.0821 74.6809 98.9659 75.1157 98.9389 75.5604C98.906 77.1579 100.964 78.3796 103.83 78.4266C105.926 78.4689 108.116 77.2519 108.163 75.1375L108.177 75.1328ZM101.453 75.6026C101.495 75.1251 101.709 74.6791 102.054 74.3466C102.4 74.0142 102.853 73.8178 103.332 73.7936C104.469 73.8218 105.682 74.3152 105.682 75.067C105.656 75.5195 105.453 75.9436 105.115 76.2465C104.778 76.5493 104.335 76.7064 103.882 76.6833C102.895 76.6833 101.434 76.3732 101.453 75.6261V75.6026ZM85.477 84.5302C87.2109 84.5302 89.0011 83.0219 89.0011 80.5081C88.9899 79.9744 88.8499 79.4513 88.5931 78.9833C88.3362 78.5154 87.97 78.1164 87.5257 77.8204C86.7073 77.2201 85.7213 76.8915 84.7064 76.8807C82.827 76.8807 81.4173 78.6051 81.4173 80.9827C81.4173 82.7118 82.9303 84.5067 85.4583 84.5067L85.477 84.5302ZM84.7253 78.9716C85.7261 78.9716 86.9336 79.6576 86.9336 80.5081C86.9336 81.4479 86.3745 82.4628 85.477 82.4628C84.5796 82.4628 83.5036 81.9036 83.5036 81.0062C83.5036 80.1886 83.8278 78.9716 84.7253 78.9716ZM97.6045 33.0603C98.0731 33.0824 98.5412 33.0064 98.9788 32.8371C99.4164 32.6678 99.8138 32.409 100.146 32.0773C100.477 31.7455 100.736 31.3481 100.905 30.9106C101.075 30.473 101.151 30.0049 101.129 29.5362C101.129 27.5064 98.9718 25.439 96.8527 25.439C94.9732 25.439 93.5636 27.1634 93.5636 29.5362C93.5636 31.2701 95.0766 33.0603 97.6045 33.0603ZM96.8715 27.5064C97.8629 27.5064 99.0799 28.6294 99.0799 29.5362C99.1052 29.7336 99.0849 29.934 99.0207 30.1223C98.9565 30.3105 98.8499 30.4816 98.7092 30.6222C98.5686 30.7629 98.3976 30.8694 98.2093 30.9337C98.0211 30.9979 97.8206 31.0182 97.6233 30.9929C96.6835 30.9929 95.6498 30.4384 95.6498 29.5362C95.6498 28.7328 95.9787 27.5064 96.8715 27.5064ZM111.198 52.3016C111.667 52.3237 112.135 52.2477 112.572 52.0784C113.01 51.9092 113.407 51.6504 113.739 51.3186C114.071 50.9868 114.33 50.5895 114.499 50.1519C114.668 49.7143 114.744 49.2462 114.722 48.7776C114.722 46.7477 112.565 44.6803 110.446 44.6803C108.543 44.6803 107.157 46.4047 107.157 48.7776C107.157 50.5114 108.665 52.3016 111.193 52.3016H111.198ZM110.47 46.7712C111.461 46.7712 112.678 47.8895 112.678 48.8011C112.703 48.9984 112.683 49.1988 112.619 49.3871C112.555 49.5754 112.448 49.7464 112.307 49.887C112.167 50.0277 111.996 50.1342 111.807 50.1985C111.619 50.2627 111.419 50.283 111.221 50.2577C110.282 50.2577 109.253 49.7032 109.253 48.8011C109.229 47.9694 109.553 46.7712 110.47 46.7712ZM79.3828 35.8185C81.1119 35.8185 82.9069 34.3149 82.9069 31.7963C82.8953 31.2627 82.7551 30.7397 82.4983 30.2718C82.2414 29.8039 81.8755 29.4049 81.4314 29.1087C80.6098 28.5181 79.624 28.1994 78.6122 28.1971C76.7045 28.1971 75.3231 29.9168 75.3231 32.2944C75.3231 34.0282 76.8361 35.8185 79.364 35.8185H79.3828ZM78.631 30.2645C79.6318 30.2645 80.8394 30.9459 80.8394 31.7963C80.8394 32.7361 80.2803 33.751 79.3828 33.751C78.4853 33.751 77.4093 33.1919 77.4093 32.2944C77.3858 31.4627 77.71 30.2505 78.6075 30.2505L78.631 30.2645ZM106.043 65.4675C107.777 65.4675 109.567 63.9592 109.567 61.4453C109.556 60.9116 109.416 60.3885 109.159 59.9205C108.903 59.4526 108.536 59.0536 108.092 58.7577C107.274 58.1574 106.288 57.8287 105.273 57.8179C103.393 57.8179 101.984 59.5424 101.984 61.9199C101.984 63.649 103.497 65.444 106.025 65.444L106.043 65.4675ZM105.292 59.9089C106.292 59.9089 107.5 60.5949 107.5 61.4453C107.5 62.3851 106.946 63.4 106.043 63.4C105.141 63.4 104.07 62.8409 104.07 61.9434C104.046 61.1117 104.361 59.8948 105.268 59.8948L105.292 59.9089ZM133.376 50.8168C133.373 60.863 130.392 70.6829 124.809 79.035C119.226 87.3871 111.292 93.8964 102.01 97.7401C92.7284 101.584 82.5153 102.589 72.6621 100.629C62.8089 98.6693 53.758 93.8321 46.6536 86.729C39.5492 79.6259 34.7103 70.5759 32.7485 60.723C30.7868 50.8702 31.7903 40.6569 35.6323 31.3744C39.4742 22.0918 45.9821 14.1567 54.3331 8.57225C62.6842 2.98778 72.5035 0.00464626 82.5497 0C96.0235 0 108.945 5.35242 118.473 14.8798C128 24.4071 133.352 37.329 133.352 50.8027L133.376 50.8168ZM129.753 50.8168C129.755 41.4861 126.99 32.3643 121.808 24.6049C116.626 16.8455 109.26 10.7968 100.64 7.22374C92.0207 3.65067 82.5353 2.71364 73.3833 4.53112C64.2313 6.34861 55.8237 10.839 49.2236 17.4345C42.6235 24.03 38.1272 32.4345 36.3033 41.5852C34.4795 50.7359 35.4099 60.222 38.977 68.844C42.544 77.466 48.5876 84.8366 56.3434 90.0241C64.0992 95.2115 73.219 97.9828 82.5497 97.9874C88.7463 97.988 94.8823 96.768 100.607 94.3969C106.332 92.0259 111.534 88.5503 115.916 84.1687C120.297 79.7871 123.773 74.5852 126.144 68.8602C128.515 63.1353 129.735 56.9993 129.734 50.8027L129.753 50.8168ZM125.43 50.8168C125.43 42.3405 122.917 34.0545 118.208 27.0067C113.498 19.9588 106.805 14.4657 98.974 11.222C91.1428 7.97821 82.5257 7.1295 74.2122 8.78315C65.8987 10.4368 58.2623 14.5185 52.2686 20.5122C46.275 26.5059 42.1932 34.1423 40.5396 42.4558C38.8859 50.7693 39.7346 59.3864 42.9784 67.2175C46.2222 75.0486 51.7152 81.742 58.7631 86.4512C65.8109 91.1604 74.0969 93.674 82.5732 93.674C88.2007 93.6715 93.7726 92.5606 98.9707 90.4048C104.169 88.249 108.892 85.0904 112.869 81.1095C116.846 77.1285 120.001 72.4031 122.152 67.2031C124.303 62.003 125.409 56.4302 125.407 50.8027L125.43 50.8168Z" fill="#F8B132"/>
<path fill-rule="evenodd" clip-rule="evenodd" d="M113.519 82.1288C111.986 82.8975 110.121 83.638 108.311 84.3598C106.924 84.9129 105.495 85.48 104.323 86.0237C106.784 85.8925 111.438 85.0676 115.454 81.093C114.836 81.4586 114.189 81.8054 113.519 82.1288ZM47.1133 81.0977C51.1301 85.0722 55.7843 85.8925 58.2449 86.0284C57.0685 85.4847 55.639 84.9176 54.2563 84.3645C52.4518 83.6474 50.5817 82.9022 49.0491 82.1335C48.3741 81.8054 47.732 81.4586 47.1133 81.0977ZM52.8315 107.003L52.7799 106.984L52.7283 106.961C47.7367 104.908 43.3309 102.231 39.6282 99.0067C36.4129 96.2086 33.6616 92.9323 31.4494 89.2718C27.4279 82.6256 25.8578 75.9654 24.9391 70.9081C23.2846 61.8107 19.7741 53.1538 19.7366 53.0694L19.6944 52.9616L19.6616 52.8491C18.6492 49.5073 18.6773 47.37 19.7506 45.9264C20.4256 45.0218 21.4754 44.5016 22.6378 44.5016C23.758 44.5016 24.7657 44.9703 25.4172 45.3687C25.8672 45.6405 26.6968 46.217 27.1983 46.981C27.2451 47.0466 27.4092 47.2341 27.5404 47.3841C28.5856 48.584 30.7651 51.0868 33.5163 57.8548C34.9178 61.2998 36.4035 64.815 38.1377 68.2131C37.7909 64.6463 38.1846 62.4528 39.4079 61.0982C40.125 60.3061 41.0999 59.8703 42.1545 59.8703C43.345 59.8703 44.5542 60.4093 45.7494 61.4732C46.5884 62.2184 47.3899 63.1887 48.0648 64.2807C49.6724 66.8679 52.9861 68.7943 60.7384 71.6346C68.5751 74.5031 73.5761 77.1653 73.7823 77.2778L73.8901 77.334L73.9886 77.3996C76.843 79.3025 79.2849 81.7632 81.2769 84.7488C83.2688 81.7632 85.7108 79.2979 88.5651 77.3996L88.6636 77.334L88.7714 77.2778C88.9823 77.1653 93.9833 74.5031 101.82 71.6346C109.568 68.7943 112.886 66.8726 114.494 64.2807C115.173 63.1887 115.97 62.2184 116.809 61.4732C118.004 60.4093 119.213 59.8703 120.404 59.8703C121.459 59.8703 122.438 60.3061 123.151 61.0982C124.374 62.4528 124.768 64.6463 124.421 68.2131C126.155 64.815 127.641 61.2998 129.042 57.8548C131.793 51.0868 133.973 48.5887 135.023 47.3841C135.154 47.2341 135.318 47.0466 135.365 46.981C135.866 46.2123 136.696 45.6405 137.151 45.3687C137.802 44.975 138.81 44.5016 139.93 44.5016C141.092 44.5016 142.147 45.0218 142.817 45.9264C143.89 47.37 143.919 49.5073 142.906 52.8491L142.873 52.9616L142.831 53.0694C142.794 53.1538 139.278 61.8341 137.629 70.9081C136.71 75.9654 135.14 82.6256 131.118 89.2718C128.906 92.9323 126.155 96.2086 122.94 99.0067C119.237 102.231 114.831 104.908 109.839 106.961L109.788 106.984L109.736 107.003H52.8315Z" fill="white"/>
<path fill-rule="evenodd" clip-rule="evenodd" d="M137.464 48.3499C136.827 49.3247 134.591 50.8715 131.371 58.7925C128.151 66.7135 124.289 75.6094 117.503 82.5931C110.716 89.5767 102.232 88.494 102.232 88.494C94.5737 85.7193 106.535 82.8415 112.417 79.8887C121.932 75.2954 121.927 68.0587 121.927 68.0587C122.775 59.5893 118.74 62.1906 116.626 65.598C114.512 69.0055 110.444 71.138 102.687 73.983C94.9253 76.8234 89.9617 79.4809 89.9617 79.4809C85.9122 82.1759 83.1515 85.8787 81.2861 89.8345C79.416 85.8833 76.66 82.1806 72.6105 79.4809C72.6105 79.4809 67.6469 76.8234 59.8853 73.983C52.1283 71.1427 48.06 69.0055 45.9461 65.598C43.8323 62.1906 39.7968 59.5893 40.6451 68.0587C40.6451 68.0587 40.6451 75.2954 50.1551 79.8887C56.0372 82.8415 67.9985 85.7193 60.3399 88.494C60.3399 88.494 51.8564 89.5767 45.0697 82.5931C38.2829 75.6094 34.4208 66.7135 31.2008 58.7925C27.9809 50.8715 25.7452 49.3247 25.1077 48.3499C24.4703 47.3703 19.7505 44.4971 22.0565 52.1229C22.0565 52.1229 25.6842 61.0047 27.4044 70.4631C29.1245 79.9215 33.4272 96.3213 53.6797 104.65H108.888C129.14 96.3213 133.448 79.9215 135.163 70.4631C136.883 61.0047 140.511 52.1229 140.511 52.1229C142.817 44.4925 138.102 47.3703 137.464 48.3499Z" fill="#925E36"/>
<path d="M0 162.217V137.003H8.63883L14.7201 157.767H15.0899V137.003H20.2072V162.217H11.7906L5.48703 141.453H5.11507V162.217H0Z" fill="#F8B132"/>
<path d="M39.4546 149.462V157.175C39.503 157.769 39.6021 158.183 39.7517 158.416C39.8992 158.651 40.2095 158.819 40.6783 158.916L40.5309 162.662C39.2697 162.662 38.2617 162.576 37.5089 162.402C36.754 162.228 35.9947 161.883 35.2287 161.363C33.4481 162.228 31.6323 162.662 29.7769 162.662C25.945 162.662 24.0302 160.635 24.0302 156.58C24.0302 154.604 24.5606 153.2 25.6237 152.372C26.6867 151.545 28.3176 151.056 30.5186 150.906L34.487 150.609V149.46C34.487 148.694 34.3131 148.168 33.9676 147.884C33.622 147.6 33.0652 147.457 32.2992 147.457L25.3287 147.754L25.1813 144.306C27.8268 143.588 30.3404 143.229 32.7262 143.229C35.1121 143.229 36.8288 143.724 37.8809 144.713C38.9286 145.705 39.4546 147.286 39.4546 149.462ZM31.1107 154.357C29.7263 154.481 29.0352 155.222 29.0352 156.583C29.0352 157.943 29.6404 158.623 30.851 158.623C31.7908 158.623 32.8164 158.475 33.9279 158.178L34.4848 158.031V154.06L31.1107 154.357Z" fill="#F8B132"/>
<path d="M58.4029 149.462V157.175C58.4513 157.769 58.5504 158.183 58.7 158.416C58.8475 158.651 59.1578 158.819 59.6266 158.916L59.4792 162.662C58.218 162.662 57.21 162.576 56.4572 162.402C55.7023 162.228 54.943 161.883 54.177 161.363C52.3964 162.228 50.5806 162.662 48.7252 162.662C44.8933 162.662 42.9785 160.635 42.9785 156.58C42.9785 154.604 43.5089 153.2 44.572 152.372C45.635 151.545 47.266 151.056 49.4669 150.906L53.4353 150.609V149.46C53.4353 148.694 53.2614 148.168 52.9159 147.884C52.5703 147.6 52.0135 147.457 51.2475 147.457L44.277 147.754L44.1296 144.306C46.7751 143.588 49.2887 143.229 51.6745 143.229C54.0604 143.229 55.7771 143.724 56.8292 144.713C57.8769 145.705 58.4029 147.286 58.4029 149.462ZM50.059 154.357C48.6746 154.481 47.9835 155.222 47.9835 156.583C47.9835 157.943 48.5888 158.623 49.7993 158.623C50.7391 158.623 51.7648 158.475 52.8762 158.178L53.4331 158.031V154.06L50.059 154.357Z" fill="#F8B132"/>
<path d="M68.1157 162.217H63.1459V143.678H68.0783V144.717C69.7599 143.729 71.305 143.234 72.7136 143.234C75.1853 143.234 76.891 143.962 77.8309 145.421C78.7707 146.881 79.2395 149.13 79.2395 152.17V162.219H74.2697V152.317C74.2697 150.735 74.0848 149.568 73.7128 148.813C73.3431 148.06 72.6013 147.682 71.4876 147.682C70.473 147.682 69.498 147.856 68.5581 148.201L68.1135 148.349V162.217H68.1157Z" fill="#F8B132"/>
<path d="M98.1076 155.483H91.9251V162.737H90.9082V142.975H98.1076C100.141 142.975 101.623 143.468 102.554 144.456C103.485 145.444 103.951 146.974 103.951 149.043C103.951 153.337 102.003 155.483 98.1076 155.483ZM91.9251 154.523H98.1076C101.288 154.523 102.879 152.699 102.879 149.047C102.879 147.315 102.503 146.032 101.75 145.193C100.997 144.357 99.7825 143.937 98.1076 143.937H91.9251V154.523Z" fill="#925E36"/>
<path d="M107.338 162.737V148.623H108.327V150.824C108.892 150.372 109.733 149.888 110.853 149.369C111.974 148.851 112.995 148.508 113.917 148.339V149.355C113.09 149.525 112.209 149.807 111.278 150.203C110.347 150.597 109.627 150.956 109.119 151.275L108.329 151.755V162.735H107.338V162.737Z" fill="#925E36"/>
<path d="M116.88 149.95C117.745 148.895 119.224 148.369 121.312 148.369C123.401 148.369 124.878 148.898 125.745 149.95C126.61 151.004 127.044 152.906 127.044 155.652C127.044 158.401 126.659 160.31 125.886 161.384C125.113 162.456 123.59 162.993 121.312 162.993C119.034 162.993 117.511 162.456 116.739 161.384C115.966 160.31 115.581 158.401 115.581 155.652C115.581 152.903 116.015 151.004 116.88 149.95ZM118.814 161.765C119.426 161.98 120.258 162.088 121.312 162.088C122.367 162.088 123.199 161.98 123.811 161.765C124.422 161.549 124.893 161.144 125.221 160.55C125.551 159.958 125.763 159.288 125.857 158.544C125.952 157.801 125.998 156.762 125.998 155.426C125.998 153.055 125.668 151.435 125.01 150.57C124.352 149.705 123.119 149.272 121.312 149.272C119.505 149.272 118.273 149.705 117.615 150.57C116.957 151.435 116.627 153.055 116.627 155.426C116.627 156.762 116.673 157.803 116.767 158.544C116.862 159.288 117.073 159.955 117.403 160.55C117.731 161.144 118.202 161.549 118.814 161.765Z" fill="#925E36"/>
<path d="M130.966 162.568V148.623H131.954V162.597C131.954 164.197 131.657 165.414 131.065 166.252C130.473 167.089 129.273 167.969 127.466 168.891L127.07 168.015C128.708 167.131 129.766 166.365 130.246 165.715C130.726 165.066 130.966 164.018 130.966 162.568ZM130.966 144.529V142.977H131.954V144.529H130.966Z" fill="#925E36"/>
<path d="M145.42 161.89L146.267 161.833L146.324 162.735C144.216 162.905 142.475 162.988 141.101 162.988C139.107 162.968 137.723 162.363 136.953 161.168C136.18 159.973 135.795 158.144 135.795 155.677C135.795 150.801 137.696 148.365 141.498 148.365C143.285 148.365 144.627 148.902 145.521 149.974C146.415 151.046 146.861 152.769 146.861 155.14V156.071H136.84C136.84 158.104 137.159 159.614 137.8 160.602C138.44 161.591 139.503 162.084 140.989 162.084C142.475 162.088 143.952 162.022 145.42 161.89ZM136.838 155.173H145.816C145.816 153.046 145.473 151.53 144.786 150.628C144.099 149.725 143.003 149.272 141.498 149.272C138.39 149.272 136.838 151.239 136.838 155.173Z" fill="#925E36"/>
<path d="M155.808 149.272C154.019 149.272 152.782 149.723 152.095 150.628C151.409 151.53 151.065 153.183 151.065 155.582C151.065 157.981 151.376 159.667 151.996 160.635C152.617 161.606 153.887 162.09 155.808 162.09L159.196 161.837L159.253 162.74C157.673 162.909 156.524 162.993 155.808 162.993C153.513 162.993 151.974 162.451 151.193 161.368C150.412 160.285 150.022 158.366 150.022 155.608C150.022 152.851 150.456 150.956 151.321 149.919C152.185 148.884 153.682 148.367 155.808 148.367L159.196 148.649L159.138 149.551C157.635 149.366 156.524 149.272 155.808 149.272Z" fill="#925E36"/>
<path d="M169.613 149.525H164.476V156.922C164.476 159.086 164.632 160.495 164.942 161.144C165.253 161.793 165.964 162.117 167.073 162.117L169.84 161.89L169.923 162.792C168.682 162.942 167.731 163.019 167.073 163.019C165.737 163.019 164.804 162.676 164.278 161.989C163.75 161.302 163.488 159.971 163.488 157.994V149.525H161.258V148.623H163.488V144.02H164.476V148.623H169.613V149.525Z" fill="#925E36"/>
</svg>
